<svg width="88" height="88" viewBox="0 0 88 88" fill="none" xmlns="http://www.w3.org/2000/svg">
    <path d="M46.115 3.3853L46.115 3.38527L46.1078 3.38258C44.7494 2.87247 43.2521 2.87247 41.8938 3.38258L41.8937 3.38255L41.8866 3.38529L5.27059 17.4559C5.26924 17.4564 5.26789 17.4569 5.26654 17.4574C4.6013 17.708 4.02809 18.1551 3.62319 18.7395C3.21746 19.325 3.00005 20.0204 3 20.7327V20.7328V26.5C3 28.4335 4.56647 30 6.5 30H81.5C83.4335 30 85 28.4335 85 26.5V20.7328C85 19.2751 84.0962 17.9704 82.7332 17.4574C82.7319 17.4569 82.7306 17.4564 82.7292 17.4559L46.115 3.3853ZM14 33H13V34V58H11.5C9.56647 58 8 59.5665 8 61.5V69V70H9H79H80V69V61.5C80 59.5665 78.4335 58 76.5 58H75V34V33H74H64H63V34V58H50V34V33H49H39H38V34V58H25V34V33H24H14ZM81.5 73H6.5C4.56647 73 3 74.5665 3 76.5V81.5C3 83.4335 4.56647 85 6.5 85H81.5C83.4335 85 85 83.4335 85 81.5V76.5C85 74.5665 83.4335 73 81.5 73Z" fill="#F7E3B6" stroke="black" stroke-width="2"/>
</svg>
