<svg width="88" height="88" viewBox="0 0 88 88" fill="none" xmlns="http://www.w3.org/2000/svg">
    <path d="M17.8794 24.1562L18.4792 23.3651L17.8794 24.1562L24.6197 29.267L24.6197 29.267C26.6726 30.8236 29.5936 30.4598 31.2012 28.4459C33.1565 25.9963 34.7773 24.1764 36.6146 22.9523C38.4124 21.7545 40.4692 21.0956 43.3504 21.0956C45.5632 21.0956 48.0616 21.8144 49.9845 23.0636C51.915 24.3179 53.1029 25.9863 53.1029 27.8505C53.1029 29.2722 52.5419 30.3552 51.375 31.4382C50.1577 32.5679 48.3549 33.6292 45.9587 34.9726L46.4478 35.8448L45.9587 34.9726C45.8018 35.0605 45.6429 35.1494 45.4822 35.2392C40.0601 38.2701 32.5886 42.4466 32.5886 52.4706V54C32.5886 56.6234 34.7152 58.75 37.3386 58.75H48.6622C51.2855 58.75 53.4122 56.6234 53.4122 54V53.098C53.4122 51.9762 54.2145 50.9662 56.0338 49.7258C56.9146 49.1253 57.951 48.5243 59.1051 47.8583L59.1971 47.8052C60.3146 47.1603 61.5274 46.4604 62.7427 45.6726C65.2413 44.0529 67.8109 42.0243 69.752 39.1902C71.7043 36.3397 72.9853 32.7262 72.9853 28C72.9854 20.8109 69.2558 14.548 63.8863 10.1113C58.521 5.67814 51.4438 3 44.5662 3C38.1879 3 32.879 4.30836 28.3379 6.81888C23.8007 9.32724 20.0888 13.0031 16.8537 17.6516C15.398 19.7433 15.8455 22.614 17.8794 24.1562ZM43.0004 61.353C36.48 61.353 31.1768 66.6562 31.1768 73.1766C31.1768 79.6968 36.48 85 43.0004 85C49.5208 85 54.824 79.6968 54.824 73.1764C54.824 66.656 49.5208 61.353 43.0004 61.353Z" fill="#F7E3B6" stroke="black" stroke-width="2"/>
</svg>
